PathFileType	4	(X/Y/Z)	RBDS025\RBDS025runT25.trc
DataRate	CameraRate	NumFrames	NumMarkers	Units	OrigDataRate	OrigDataStartFrame	OrigNumFrames
150.000000	150.000000	6	33	mm	150.000000	2250	4500
Frame#	Time	L.ASIS			L.Heel.Bottom			L.Heel.Lateral			L.Heel.Top			L.Iliac.Crest			L.MT1			L.MT5			L.PSIS			L.Shank.Bottom.Lateral			L.Shank.Bottom.Medial			L.Shank.Top.Lateral			L.Shank.Top.Medial			L.Thigh.Bottom.Lateral			L.Thigh.Bottom.Medial			L.Thigh.Top.Lateral			L.Thigh.Top.Medial			R.ASIS			R.ASY			R.Heel.Bottom			R.Heel.Lateral			R.Heel.Top			R.Iliac.Crest			R.MT1			R.MT5			R.PSIS			R.Shank.Bottom.Lateral			R.Shank.Bottom.Medial			R.Shank.Top.Lateral			R.Shank.Top.Medial			R.Thigh.Bottom.Lateral			R.Thigh.Bottom.Medial			R.Thigh.Top.Lateral			R.Thigh.Top.Medial			
		X1	Y1	Z1	X2	Y2	Z2	X3	Y3	Z3	X4	Y4	Z4	X5	Y5	Z5	X6	Y6	Z6	X7	Y7	Z7	X8	Y8	Z8	X9	Y9	Z9	X10	Y10	Z10	X11	Y11	Z11	X12	Y12	Z12	X13	Y13	Z13	X14	Y14	Z14	X15	Y15	Z15	X16	Y16	Z16	X17	Y17	Z17	X18	Y18	Z18	X19	Y19	Z19	X20	Y20	Z20	X21	Y21	Z21	X22	Y22	Z22	X23	Y23	Z23	X24	Y24	Z24	X25	Y25	Z25	X26	Y26	Z26	X27	Y27	Z27	X28	Y28	Z28	X29	Y29	Z29	X30	Y30	Z30	X31	Y31	Z31	X32	Y32	Z32	X33	Y33	Z33	

2251	15	2150.785982822279	899.0180756136315	883.0107408417585	1761.073161062916	310.0945776342778	893.1291670327643	1792.228302878684	295.8545655334801	849.1655214740603	1804.785443012401	320.3230722715884	893.5652768797706	2076.874395109125	969.537780816678	829.3424352948953	1863.430309556165	127.2779255528345	920.9379571327119	1846.978567543659	155.2963485644017	812.4507711949507	1987.365480520915	958.6980420758641	926.6146063395829	1932.398914642463	309.477615643429	832.9030768425533	1910.739709797679	353.2907912784044	859.4540370049439	1999.790416902537	351.967190675672	819.9739207304442	1979.109280429301	394.9999434681966	844.6347571535732	2170.923285518459	567.8291860593158	804.0885021252893	2111.172560453057	539.2591334861092	834.5592901670649	2121.877934198606	664.9713253154939	799.1620163137468	2065.046512538727	638.5504222980416	830.2480491021922	2150.983697371953	910.7346713287523	1086.258899593261	1987.735380598221	76.20133596625753	1015.596464797584	1804.184375368148	47.14441612230214	976.9876526929537	1825.583237567691	67.31846554810264	1021.297205358598	1818.43565221866	90.12016729110368	977.2264470636318	2091.451234244074	968.357791942018	1127.367261510307	2018.501083403575	41.9012042509133	976.2486416919932	1968.594684667267	36.03852098769203	1080.176512069984	1989.171196977381	963.373504660614	1028.659207732441	1933.741288460441	181.3969399905285	1050.980243935967	1897.773821114327	207.8246142261113	1025.550978934884	1970.133858306505	254.3711669927039	1073.390447265777	1931.426426521673	278.7497856816725	1044.679707109673	2088.232124986299	536.3440632661939	1115.199067670082	2025.923467186852	531.0366703968199	1080.636413891704	2066.076865709385	642.57000119332	1138.020164320631	2005.432056499575	636.4080805492807	1105.954894538427	
2252	15.00666666666667	2150.965409282266	903.3711533189014	883.1707913178498	1775.304299461212	295.9719152408476	894.9214836955745	1807.198574310103	283.4837927482197	850.9443502565362	1818.294984027252	308.8722446968358	895.2660213592693	2077.192477241816	974.4638886024287	829.2269071897533	1888.348021753551	119.6059547585498	922.5111735357484	1869.953086558924	146.5187725914667	814.15121235557	1987.455340116963	963.2501972485732	926.2451528075933	1946.897476259255	304.3876495955664	834.3173105190007	1923.102222452738	347.2857073995348	860.4967948046774	2012.179963929981	350.047970407017	821.0984684309799	1989.391109537113	392.2019662499592	845.4351128877207	2177.548511556262	575.2152930658515	804.0335429418806	2118.159172566257	545.2685857004832	833.8903108820627	2126.439601995892	671.2112669800841	798.6015885402232	2069.654929172455	643.4258848178109	828.7006834403624	2150.749024445329	913.5161988308425	1086.366502165897	1972.025813165819	76.61924324162641	1016.306925559303	1788.160786634666	51.48610103410275	977.4365298829069	1809.894879510025	70.79058129080447	1021.939738935693	1803.132875590777	94.16871830735931	978.1295532289633	2092.119674349733	971.8894716873041	1126.899966997985	2001.579110121601	41.92576271097094	976.2296858274274	1951.810893418035	36.1598428145256	1080.315710097408	1989.457512306112	967.3964940144091	1028.333900675632	1918.639865790062	184.5768560694258	1051.624756345381	1882.871140765636	211.0507057876784	1025.980984386853	1955.406339189954	257.4648893466651	1073.839401152281	1916.822268108963	281.9317667953855	1045.006714937988	2078.150100796902	539.1996504187699	1114.734256822803	2015.81559353593	535.8122975059374	1080.099645714305	2059.280085166744	646.0200749426291	1137.518226094208	1998.594104742181	641.7772624148828	1105.197197056698	
2253	15.01333333333333	2151.280615899271	907.9748602672926	883.2319468451552	1790.327992019053	281.0713481092281	896.9790133468656	1822.771318508104	270.4733777276532	852.9302870926473	1832.411484645265	296.6847677811929	897.1978173533498	2077.681262761218	979.7953320576573	829.0059703521405	1914.090353622107	112.0081654759746	924.046087075437	1893.605298036914	137.7205696709276	815.8905707634491	1987.739111014615	968.136543937233	925.8231223969068	1961.571421167058	299.046143871526	835.8388518795254	1935.590971810741	340.8182506321386	861.7430841675471	2024.418644059958	347.9616426810493	822.3120088640406	1999.491868019538	389.0257683462115	846.4222169891566	2183.542594956238	582.8188052822287	804.0215905582965	2124.513596179807	551.6529778791601	833.3314831004623	2130.591746262346	677.7396671140941	798.0608406642868	2073.918315531311	648.7468254417757	827.3226722324196	2150.7054648832	916.4435052751099	1086.341762744021	1956.563041622863	77.08016171270529	1017.184541008491	1772.443459612992	56.48707388793542	977.9353468421751	1794.507050379046	74.75393473722929	1022.684379495814	1788.246792531769	98.80530573818201	979.1817690474048	2092.989092477505	975.52012516321	1126.365907974148	1984.765370484492	41.97351385195034	976.2956718878055	1935.094351884272	36.3190426372723	1080.516970098733	1989.982496090694	971.6878074553906	1027.974848139869	1903.797321887173	188.2400460036587	1052.510224122251	1868.252543504448	214.7128340185046	1026.560507989996	1940.87717203812	261.0947979782885	1074.46303755038	1902.431655405357	285.5889983098111	1045.472014179954	2068.176922969916	542.5999152893919	1114.381006414296	2005.907795622847	541.1305454941185	1079.603215791257	2052.626859685598	649.9280303303779	1137.063060951713	1991.976926852441	647.6025059392316	1104.441347811038	
2254	15.02	2151.700408347122	912.777857094198	883.1604136300086	1806.248292902216	265.5056487793747	899.2927760825858	1839.029052466221	256.9230282899961	855.1158207069863	1847.234217347113	283.8389601576727	899.3590834869484	2078.274446326423	985.4511482033449	828.6794709695122	1940.628223101362	104.5988902127342	925.5225403467811	1917.937225738618	129.0070782341488	817.6415830829188	1988.203973561653	973.2888462610833	925.3657207801303	1976.447669852023	293.4823446966724	837.4679501553053	1948.269055351676	333.9075195605409	863.2104356445755	2036.518620270528	345.6917104283374	823.6126150328923	2009.455406984807	385.4467307228309	847.6103491841762	2188.848174627268	590.5073522240546	804.0538787445375	2130.168691656968	558.286727516677	832.897642809558	2134.281860902013	684.4477397327721	797.567113798701	2077.78346241158	654.4166663342569	826.1709034684461	2150.861616329356	919.4548313374929	1086.153076756505	1941.380270489781	77.56215011157815	1018.2179389415	1757.086017793856	62.14512279289728	978.4801014745645	1779.470576552043	79.21618588846336	1023.516001101616	1773.834227284389	104.0162653993966	980.3616737868804	2094.113334782247	979.2199475628584	1125.745386848631	1968.099494663862	42.01700769862976	976.4652903844581	1918.470292401547	36.52533655270697	1080.78130687857	1990.75126152639	976.1933806470452	1027.59496809452	1889.274020616193	192.3523191127413	1053.639224259435	1853.993983213819	218.7800453205851	1027.282221936142	1926.614829261275	265.2207926822792	1075.263557678766	1888.333188590239	289.6810284467616	1046.067983483454	2058.389072062364	546.4892920763701	1114.185890229349	1996.267893105959	546.9124962262074	1079.197392562034	2046.158091190762	654.2432971727218	1136.683576326711	1985.617306734098	653.8081007008088	1103.727713208283	
2255	15.02666666666667	2152.194941113313	917.7261709316872	882.9270917054675	1823.159207267975	249.3989158245732	901.8471367566415	1856.051052362953	242.9404991480404	857.4891603361631	1862.85440945079	270.4286388120266	901.7414527548175	2078.910807514847	991.3406218444554	828.2532260609248	1967.927256379537	97.49221503433866	926.9297097132318	1942.942409764944	120.4846633302503	819.384049372754	1988.833447919235	978.6289475402942	924.8884935785927	1991.553464409733	287.7261755039329	839.1977225189131	1961.198153949132	326.5809239015688	864.8999533030088	2048.501266702127	343.2205355183244	824.9917416575563	2019.329999289322	381.4475026745676	848.9961955896682	2193.417615605969	598.1427401622708	804.1348614758439	2135.066248759795	565.0371228463783	832.6040470837474	2137.466325757157	691.2177447342397	797.147293808	2081.198446039477	660.3276515237617	825.2909676974502	2151.219659149553	922.4939910967279	1085.775724528702	1926.504908601329	78.05259068153842	1019.389459505561	1742.139872875836	68.44328540248954	979.0745953376224	1764.836016773063	84.17642153681891	1024.422810874611	1759.945247879159	109.7740864421974	981.6499412964904	2095.539294791936	982.9733944216546	1125.015909452264	1951.619492031874	42.03573908498227	976.7521936073754	1901.968305485831	36.79812594690784	1081.109205894592	1991.759269974684	980.8509666507247	1027.203943099855	1875.122537034886	196.8665365598937	1055.007408552621	1840.15946625626	223.2076569418359	1028.136665474549	1912.67819210013	269.7894229860199	1076.238637919532	1874.594017829522	294.1556494809675	1046.783922095826	2048.848877287109	550.8047838438553	1114.189059559972	1986.950018756929	553.073073645427	1078.925535173828	2039.901231212824	658.9085258725481	1136.406299549583	1979.540414218395	660.3125879756514	1103.090765465645	
2256	15.03333333333333	2152.738327263888	922.7635402109349	882.5111580755231	1841.140886538632	232.8871247432518	904.6162175854869	1873.912540719782	228.6420216975559	860.031004487725	1879.351091755558	256.5637857008341	904.3260620819399	2079.537799022433	997.3709932240062	827.7392007416133	1995.944148395007	90.80516186582329	928.2693449388704	1968.607437393459	112.2621119928293	821.1072611398431	1989.608517537192	984.0716313990317	924.4059282693058	2006.915440894019	281.8100767358182	841.0130553216485	1974.436616543838	318.8760313763349	866.794196283204	2060.397229288706	340.5312207385209	826.4333008928071	2029.168445336173	377.019264504898	850.5570412672765	2197.21378805752	605.5830838108452	804.2716426476944	2139.157657622428	571.7665457981931	832.4641969731491	2140.11200232464	697.9247197535135	796.8251088324919	2084.114518108647	666.3620904048266	824.7122830588909	2151.775578146833	925.512411483245	1085.195016624956	1911.956849977241	78.55203298505582	1020.677376884099	1727.652186300002	75.35223161930956	979.731775468488	1750.651316745789	89.62589951655067	1025.399518737275	1746.621324526033	116.040607033299	983.033063828306	2097.300770175277	986.7739094159555	1124.15702634427	1935.359123024543	42.02300082188081	977.1631172481535	1885.621754284684	37.16746249713942	1081.500971243882	1992.991939083438	985.5918188215398	1026.809223643932	1861.386095013604	201.7262559090635	1056.603506296713	1826.797377142649	227.9413679850278	1029.114646795747	1899.115309009846	274.7374622438127	1077.382067840681	1861.267384921514	298.9532621146423	1047.608396481227	2039.602871027329	555.4795361732797	1114.418605636459	1977.993288602092	559.5264086900548	1078.818487709661	2033.871034000156	663.8622642653053	1136.252257395815	1973.760938302981	667.0334932586845	1102.555003287504	
